<svg width="498" height="498" viewBox="0 0 498 498" fill="none" xmlns="http://www.w3.org/2000/svg">
<path d="M276.784 28C305.834 28 334.601 33.7161 361.439 44.8223C388.278 55.9285 412.665 72.2078 433.207 92.7295C453.749 113.251 470.044 137.614 481.161 164.427C492.278 191.24 498 219.978 498 249C498 278.022 492.278 306.76 481.161 333.573C470.044 360.386 453.749 384.749 433.207 405.271C412.665 425.792 388.278 442.071 361.439 453.178C334.601 464.284 305.834 470 276.784 470H166.885V415.722C259.053 415.722 333.77 341.078 333.771 249C333.771 156.922 259.053 82.2773 166.885 82.2773V28H276.784ZM166.885 415.722C74.7169 415.722 7.43111e-05 341.078 0 249C0 156.922 74.7168 82.2775 166.885 82.2773V415.722Z" fill="#F9FAFB"/>
</svg>
