<svg width="768" height="768" viewBox="0 0 768 768" fill="none" xmlns="http://www.w3.org/2000/svg">
<g clip-path="url(#clip0_41_34)">
<path d="M571 0H197C88.1999 0 0 88.1999 0 197V571C0 679.8 88.1999 768 197 768H571C679.8 768 768 679.8 768 571V197C768 88.1999 679.8 0 571 0Z" fill="#F9FAFB"/>
<path d="M411.784 163C440.834 163 469.601 168.716 496.439 179.822C523.278 190.929 547.665 207.208 568.207 227.729C588.749 248.251 605.044 272.614 616.161 299.427C627.278 326.24 633 354.978 633 384C633 413.022 627.278 441.76 616.161 468.573C605.044 495.386 588.749 519.749 568.207 540.271C547.665 560.792 523.278 577.071 496.439 588.178C469.601 599.284 440.834 605 411.784 605H301.885V550.722C394.053 550.722 468.77 476.078 468.771 384C468.771 291.922 394.053 217.277 301.885 217.277V163H411.784ZM301.885 550.722C209.717 550.722 135 476.078 135 384C135 291.922 209.717 217.277 301.885 217.277V550.722Z" fill="#030712"/>
</g>
<defs>
<clipPath id="clip0_41_34">
<rect width="768" height="768" fill="white"/>
</clipPath>
</defs>
</svg>
