<svg width="24" height="24" viewBox="0 0 24 24" fill="none" xmlns="http://www.w3.org/2000/svg">
<rect width="24" height="24" rx="7" fill="#030712"/>
<path d="M12.8682 5.09375C13.7759 5.09375 14.675 5.27212 15.5137 5.61914C16.3524 5.96621 17.1149 6.47491 17.7568 7.11621C18.3988 7.75751 18.9075 8.51952 19.2549 9.35742C19.6022 10.1953 19.7812 11.0931 19.7812 12C19.7812 12.9069 19.6022 13.8047 19.2549 14.6426C18.9075 15.4805 18.3988 16.2425 17.7568 16.8838C17.1149 17.5251 16.3524 18.0338 15.5137 18.3809C14.675 18.7279 13.7759 18.9062 12.8682 18.9062H9.43359V17.21C12.3138 17.21 14.6494 14.8774 14.6494 12C14.6494 9.21244 12.4577 6.93636 9.70215 6.79688L9.43359 6.79004V5.09375H12.8682ZM9.43359 17.21C6.55349 17.2098 4.21876 14.8773 4.21875 12C4.21875 9.12266 6.55349 6.79021 9.43359 6.79004V17.21Z" fill="#F9FAFB"/>
</svg>
